<svg width="20" height="20" viewBox="0 0 20 20" xmlns="http://www.w3.org/2000/svg">
  <path fill="currentColor" d="M14.3 0.9c-0.4 0-0.9 0.1-1.4 0.3-2 -0.3-5.8 0-8.5 2.6C3.6 4.4 2.9 5.1 2.5 6 0.2 10.1 1.7 15.4 5.9 17.9 10 20.3 15.2 19 17.5 14.9c1.9-3.3 1.2-7.5-1.4-10.2-0.3-0.1-0.6-0.2-0.9-0.2 0.1 0.1 0.1 0.1 0.2 0.2l-0.5 0.5c-0.1-0.1-0.2-0.2-0.3-0.2-0.1 0.2-0.1 0.4 0 0.7 1.6 2 2.1 5.3 0.9 7.4-1.5 2.7-5 3.6-7.7 2-2.7-1.6-3.3-4.9-1.8-7.6 0.9-1.7 2.7-2.6 4.4-2.6 0.4 0 0.8 0.1 1.2 0.2-0.2-0.5-0.2-0.9-0.3-1.4l0.2-0.1c0.4-0.2 0.7-0.5 1-0.8l-0.2 0 0.1-0.7c0.2 0 0.3 0 0.5 0.1l0 0.3c0.2 0.1 0.4 0.3 0.6 0.4-0.4 0.6-0.8 1-1.3 1.3 0.1 0.5 0.3 1.2 0.6 1.8 0.6 1 1.3 2 2.3 2.1-0.5-0.7-0.9-1.3-1-1.9-0.2-0.7-0.1-1.3 0.2-1.7 0.3-0.3 0.7-0.5 1.2-0.5 0.2 0 0.3 0 0.5 0.1 0.6 0.2 1.4 0.6 2.2 1.3 0.3-0.4 0.4-0.9 0.3-1.4-1.2-0.4-1.8-2.8-4-2.8zm0.1 0.6c0.2 0 0.4 0 0.6 0.1 0.5 0.2 0.8 0.6 0.7 0.9-0.1 0.3-0.6 0.3-1.1 0.1-0.5-0.2-0.8-0.6-0.7-0.9 0.1-0.2 0.2-0.2 0.5-0.2z"/>
</svg>
