<svg viewBox="0 0 100 100" xmlns="http://www.w3.org/2000/svg" aria-label="Research Library">
    <rect x="15" y="30" width="18" height="55" fill="currentColor" opacity="0.7" rx="3"/>
    <rect x="41" y="25" width="18" height="60" fill="currentColor" opacity="0.9" rx="3"/>
    <rect x="67" y="35" width="18" height="50" fill="currentColor" opacity="0.6" rx="3"/>
    
    <rect x="18" y="38" width="12" height="2" fill="white" opacity="0.8" rx="1"/>
    <rect x="18" y="45" width="10" height="2" fill="white" opacity="0.6" rx="1"/>
    <rect x="18" y="52" width="8" height="2" fill="white" opacity="0.4" rx="1"/>
    
    <rect x="44" y="33" width="12" height="2" fill="white" opacity="0.8" rx="1"/>
    <rect x="44" y="40" width="10" height="2" fill="white" opacity="0.6" rx="1"/>
    <rect x="44" y="47" width="8" height="2" fill="white" opacity="0.4" rx="1"/>
    
    <rect x="70" y="43" width="12" height="2" fill="white" opacity="0.8" rx="1"/>
    <rect x="70" y="50" width="10" height="2" fill="white" opacity="0.6" rx="1"/>
    <rect x="70" y="57" width="8" height="2" fill="white" opacity="0.4" rx="1"/>
    
    <circle cx="24" cy="20" r="2" fill="currentColor" opacity="0.5"/>
    <circle cx="50" cy="15" r="2" fill="currentColor" opacity="0.5"/>
    <circle cx="76" cy="25" r="2" fill="currentColor" opacity="0.5"/>
</svg>
